<svg role="img" viewBox="59.4 91.1 409.6 349.2" xmlns="http://www.w3.org/2000/svg">
<title>BuzzCast</title>
<path fill="currentColor" d="M60.512939,104.461494 C60.562527,100.292816 60.646297,96.590424 60.848167,92.438583 C63.024479,91.986671 65.082687,91.984200 67.572006,91.888664 C72.699005,91.858589 77.394905,91.921577 82.548904,91.888672 C90.700424,91.857994 98.393852,91.923218 106.547974,91.892151 C118.364990,91.860260 129.721298,91.924667 141.538208,91.896713 C149.024612,91.863922 156.050415,91.923492 163.536774,91.891418 C168.359818,91.861382 172.722321,91.922997 177.541626,91.892960 C182.028305,91.862175 186.058197,91.923035 190.543442,91.892014 C195.360931,91.860382 199.723068,91.920631 204.541931,91.888771 C209.027802,91.857010 213.056976,91.917358 217.541458,91.886711 C222.064682,91.855339 226.132568,91.914963 230.617523,91.888992 C234.069016,91.903893 237.103485,92.004395 240.569092,92.031143 C246.389084,92.627434 251.777908,93.297462 257.582611,93.899963 C263.729553,94.899643 269.460663,95.966843 275.595886,96.993347 C283.093170,99.199242 290.186279,101.445839 297.640991,103.738274 C308.373871,108.960464 318.745209,114.136810 329.457306,119.435760 C338.902863,126.666595 348.678192,133.081772 356.932587,141.068878 C366.039917,149.881287 373.751923,160.135803 382.433655,170.261749 C383.450134,171.599274 384.104675,172.437225 384.759216,173.275177 C384.759216,173.275177 384.782043,173.170090 384.814758,173.540344 C391.474396,186.763397 398.101257,199.616211 405.187225,213.359375 C410.335236,211.613113 416.728027,209.444611 423.120789,207.276108 C425.858185,206.516647 428.595612,205.757172 431.645142,204.762939 C436.029877,203.311493 440.102478,202.094803 444.542908,200.691803 C448.392670,199.421036 451.874603,198.336578 455.675903,197.060883 C459.382355,196.241364 462.769470,195.613068 466.578430,194.928070 C472.580933,198.424637 470.484833,204.131805 471.085693,209.555176 C471.118866,218.028885 471.061035,226.055222 471.095581,234.542542 C471.125122,244.363266 471.062286,253.722992 471.092102,263.543854 C471.121887,274.697418 471.059052,285.389832 471.089874,296.543030 C471.121613,306.029633 471.059692,315.055450 471.091278,324.541992 C470.272766,329.166656 469.360718,333.330688 468.224731,337.781799 C465.418671,337.843750 462.713043,338.037323 460.276520,337.318542 C451.393433,334.697876 442.600189,331.772522 433.389923,328.967468 C423.653046,325.870361 414.299316,322.767853 404.471344,319.508026 C402.859711,323.645538 401.391541,327.414703 399.814911,331.540192 C394.097504,342.335266 388.488586,352.773956 382.776550,363.551575 C378.874573,368.706879 375.075714,373.523315 371.127930,378.636444 C367.392944,382.704773 363.806915,386.476379 360.084839,390.547455 C357.716644,392.656067 355.484467,394.465240 353.104736,396.569336 C350.125397,399.227203 347.293640,401.590118 344.233948,404.226379 C340.779083,406.751343 337.552155,409.003021 334.127960,411.517548 C329.727875,414.213257 325.525055,416.646149 321.078857,419.302185 C316.446228,421.699219 312.056976,423.873108 307.368744,426.273224 C302.590027,428.223114 298.110260,429.946747 293.315826,431.854218 C287.250427,433.663940 281.499756,435.289825 275.377411,437.056641 C268.253479,438.367859 261.501160,439.538177 254.374481,440.855347 C247.307358,441.317627 240.614609,441.632996 233.462341,442.023590 C228.310394,441.949036 223.617935,441.799255 218.461090,441.704895 C209.254105,440.552460 200.511520,439.344574 191.383774,438.016296 C181.410568,434.949921 171.730713,432.266876 162.267929,428.962250 C156.314316,426.883057 150.686005,423.872314 144.642792,421.079529 C126.825325,410.870056 110.682274,399.128113 97.288437,383.789429 C87.064819,372.081299 78.426437,359.374512 71.252701,345.242249 C68.302162,337.490906 65.415840,330.040649 62.950279,322.453674 C61.842163,319.043793 61.574993,315.360687 60.795670,311.398499 C61.874054,310.284637 63.035954,309.080048 64.301155,308.959503 C67.539192,308.650940 70.823219,308.824768 74.547226,308.721588 C81.696510,308.694244 88.387428,308.751038 95.540604,308.725159 C102.825386,308.395050 109.647903,308.147583 117.185921,307.650146 C124.403206,305.300964 129.384033,301.438843 132.468597,294.823608 C140.192490,277.329163 129.894012,259.648773 111.422043,258.327240 C105.979057,257.937836 100.475906,258.389496 94.542542,258.352936 C86.383904,258.328705 78.683037,258.407257 70.982170,258.485779 C67.728416,258.279266 64.474663,258.072723 60.453857,257.817474 C60.453857,254.310989 60.453857,251.054276 60.338764,247.404312 C60.331688,239.646744 60.439709,232.282410 60.505913,224.450684 C64.342911,223.633682 68.221725,223.284088 72.553925,222.844452 C78.366455,222.813553 83.725594,222.872711 89.545036,222.840912 C95.698792,222.810699 101.392242,222.871475 107.958778,222.926041 C115.616875,223.165573 121.448944,221.119583 126.214516,215.641998 C127.543007,213.981720 128.744217,212.578568 129.594894,210.987930 C135.885544,199.225494 129.132889,182.365677 116.601959,180.181808 C108.912903,178.841751 100.881104,179.468292 92.542297,179.120483 C84.722137,179.090164 77.362900,179.151108 70.003654,179.212036 C67.106865,179.060181 64.210068,178.908340 60.551243,178.716553 C60.551243,175.652649 60.551243,172.781738 60.515800,169.451340 C60.568291,161.963943 60.656227,154.936035 60.863579,147.451431 C68.131050,146.996933 75.279114,146.999115 83.234238,146.985901 C93.364143,146.924072 102.686981,146.877640 112.426651,146.931183 C138.460129,149.082306 155.550934,164.080475 163.230560,191.732666 C163.156830,198.788040 163.121643,205.393265 162.937698,212.344299 C161.466705,216.695831 160.144470,220.701538 158.556671,224.928558 C156.232605,228.444977 154.174072,231.740067 151.818878,235.206055 C150.262970,236.852295 149.003738,238.327652 148.455673,238.969772 C153.583832,246.951370 158.416229,254.472672 163.275589,262.358429 C166.890747,271.139374 167.380325,280.015930 167.082733,289.386597 C164.807053,296.808624 162.651367,303.835541 160.265945,311.085083 C156.660675,315.811768 153.285110,320.315857 149.610870,324.978516 C145.001114,328.308441 140.690033,331.479797 136.038727,334.702606 C132.133316,336.189911 128.568146,337.625763 124.601334,339.039948 C121.647720,339.512939 119.095741,340.007568 115.813545,340.643768 C129.726028,360.454193 146.739059,375.579010 168.276398,386.078979 C177.967697,389.749146 187.388184,393.187012 197.143646,396.771637 C206.322205,398.210663 215.165833,399.502899 224.470688,400.880310 C233.624191,400.582977 242.316467,400.200470 251.416504,399.846497 C259.607117,398.118866 267.389954,396.362762 275.567230,394.570007 C281.810089,392.124542 287.658508,389.715698 293.845886,387.258789 C296.790375,385.795654 299.395935,384.380585 302.343628,382.927307 C305.145203,381.318390 307.604584,379.747711 310.398010,378.085510 C313.337921,376.055634 315.943787,374.117310 318.751282,371.941254 C320.676819,370.155914 322.400696,368.608307 324.465820,367.016174 C326.974365,364.698547 329.141602,362.425446 331.624084,360.039490 C334.933868,356.610718 337.928436,353.294800 341.152771,349.730530 C344.398193,345.371307 347.413910,341.260406 350.676636,336.919647 C352.991364,333.220490 355.059082,329.751251 357.397034,326.048645 C360.907440,316.921143 364.147614,308.026947 367.606049,298.833008 C368.905090,290.882660 369.985870,283.232086 371.192383,275.230347 C371.164246,270.919983 371.010406,266.960785 370.932770,262.553284 C370.950714,259.403717 370.892426,256.702362 370.898102,253.597412 C370.311768,249.462479 369.661469,245.731155 369.042664,241.592865 C366.752228,233.789551 364.430328,226.393204 362.139069,218.619385 C347.252197,182.716446 321.784302,157.890198 285.907196,143.153275 C277.744171,140.674500 269.871033,138.368530 261.623596,135.919037 C257.166016,135.197113 253.082748,134.618698 248.611008,133.905396 C245.147598,133.566528 242.072662,133.362549 238.542053,133.060791 C233.723831,132.996582 229.361298,133.030136 224.538574,132.968277 C215.051178,132.936691 206.023941,133.000504 196.536377,132.970642 C185.051071,132.937714 174.026093,132.998474 162.541656,132.961121 C156.055176,132.929306 150.028183,132.995605 143.546371,132.963593 C138.288025,132.931671 133.484482,132.998047 128.311630,132.965942 C120.295746,132.932434 112.649162,132.997421 104.542542,132.964767 C94.722595,132.930176 85.362686,132.993240 76.002785,133.056305 C71.046677,133.056305 66.090576,133.056305 60.459824,133.056305 C60.459824,129.134720 60.459824,126.005173 60.340279,122.471130 C60.329533,116.353668 60.438328,110.640724 60.512939,104.461494 z
M328.473724,264.541412 C328.426422,269.785156 328.272034,274.562408 328.245972,279.340332 C328.218964,284.287689 326.531891,288.339050 322.081848,291.379272 C310.824829,295.759247 302.499146,290.853424 303.003113,278.334259 C303.075836,276.527710 302.986176,274.714661 302.876892,272.449890 C302.859344,264.867798 302.761902,257.732147 303.098724,250.617096 C303.235809,247.721390 304.316132,244.870346 305.044922,241.632950 C309.280518,236.675278 314.205963,234.518845 320.287354,236.943466 C326.409882,239.384521 328.311188,244.425034 328.268066,250.590805 C328.236633,255.085022 328.365570,259.580353 328.473724,264.541412 z
M238.778229,283.183167 C237.290527,285.818787 235.786270,288.045807 234.113113,290.554626 C232.502014,291.459167 231.059814,292.081970 229.308807,292.852539 C217.567413,292.814148 214.185669,289.025238 213.465149,275.378601 C213.417053,268.954437 213.505859,262.900269 213.535339,256.421539 C214.326477,251.075806 215.176971,246.154648 216.147156,240.893860 C219.259872,239.035416 222.252899,237.516602 225.625427,235.890961 C235.715714,237.281311 238.782791,241.357086 239.142380,253.557648 C239.173492,260.406677 239.114700,266.820892 239.145340,273.635437 C239.077072,276.948730 238.919373,279.861694 238.778229,283.183167 z"/>
</svg>
